
<svg width="498px" height="498px" viewBox="0 0 498 498" version="1.1" xmlns="http://www.w3.org/2000/svg" xmlns:xlink="http://www.w3.org/1999/xlink">
    <!-- Generator: Sketch 51.2 (57519) - http://www.bohemiancoding.com/sketch -->
    <desc>Created with Sketch.</desc>
    <defs></defs>
    <g id="Page-1" stroke="none" stroke-width="1" fill="none" fill-rule="evenodd">
        <g id="checkmark" fill-rule="nonzero">
            <path d="M497.1,249 C497.1,112 386,0.9 249,0.9 C112,0.9 0.9,112 0.9,249 C0.9,386 112,497.1 249,497.1 C386,497.1 497.1,386 497.1,249 Z" id="Shape" fill="#FF4500"></path>
            <path d="M385.6,165.9 C379.8,150.8 367.9,153.2 355,155.8 C347.3,157.4 313,167.4 258.9,224.6 C236.4,248.3 221.6,267.2 211.8,281.6 C205.8,274.3 199,266.4 191.8,259.3 C169.7,237.2 145,222 144,221.4 C133.7,215.1 120.2,218.3 113.8,228.7 C107.5,239 110.7,252.5 121,258.9 C121.2,259 142.4,272.1 160.6,290.4 C179.2,309 196.1,334.2 196.3,334.5 C200.4,340.7 207.3,344.3 214.6,344.3 C215.8,344.3 217.1,344.2 218.4,344 C227,342.5 233.8,336.1 235.9,327.7 C236,327.5 244.7,303.4 290.6,255 C327.6,215.9 352.3,203.5 360.9,200.1 C361.2,200.1 361.5,200 362,199.7 C363.5,199.1 364.3,198.9 364.3,198.9 C367.7,197.2 375.1,194 375.2,193.9 C386.3,189.1 390,177.1 385.6,165.9 Z" id="Shape" fill="#FFFFFF"></path>
        </g>
    </g>
</svg>